# xmcd CD database file
#
# Track frame offsets:
#	150
#	16056
#	30140
#	45184
#	57131
#	72264
#	83976
#	100343
#	113808
#	129338
#	147639
#	165899
#	187381
#	207923
#	223172
#	235727
#
# Disc length: 3357 seconds
#
# Revision: 2
# Processed by: cddbd v1.5.2PL0 Copyright (c) Steve Scherf et al.
# Submitted via: CDex 1.70beta2
#
DISCID=d50d1b10
DTITLE=Various Artist - Die ultimative Hochzeitsparty CD 2
DYEAR=2006
DGENRE=Schlager
TTITLE0=Nena - 99 Luftballons
TTITLE1=Rosenberg, Marianne - Er gehört zu mir
TTITLE2=Kuhn, Dieter Thoams - Eine neue Liebe ist wie ein  neues Leben
TTITLE3=Deutscher, Drafi - Marmor, Stein und Eisen bricht
TTITLE4=Lage, Klaus - 1001 Nacht
TTITLE5=Gott, Karel - Die Biene Maja
TTITLE6=Reim, Matthias - Verdammt ich lieb Dich
TTITLE7=Christie, Tony - Amarillo
TTITLE8=Beachbombass - Turbo Polka
TTITLE9=Aventura - Obsésion
TTITLE10=C:, Melanie - First day of my life
TTITLE11=Marshall and Alexander - Lovers forever
TTITLE12=Gäbel, Tom - Where do I beginn (Love story)
TTITLE13=Groom Frank - New York, New York
TTITLE14=Bride Doris - Whatever will be
TTITLE15=Python, Monty - Always look on the bright side of life
EXTD=YEAR: 2006
EXTT0=
EXTT1=
EXTT2=
EXTT3=
EXTT4=
EXTT5=
EXTT6=
EXTT7=
EXTT8=
EXTT9=
EXTT10=
EXTT11=
EXTT12=
EXTT13=
EXTT14=
EXTT15=
PLAYORDER=
